<?xml version="1.0" encoding="UTF-8" standalone="no"?>
<svg xmlns:rdf="http://www.w3.org/1999/02/22-rdf-syntax-ns#" xmlns="http://www.w3.org/2000/svg" xml:space="preserve" height="214.06" viewBox="0 0 126.25229 214.05736" width="126.25" version="1.1" xmlns:cc="http://creativecommons.org/ns#" xmlns:dc="http://purl.org/dc/elements/1.1/"><g transform="matrix(1.25 0 0 -1.25 -589.08 566.73)"><g transform="translate(.93407 .62271)"><path d="m28.236 62.5c-4.3407 0.05734-8.1198 1.4759-7.8496 1.7461 0.77625 0.7775 2.8666 6.858 5.5078 8.0293 8.0012 2.2512 15.768 0.02328 14.994-0.94922-2.1238-2.6725-2.1476-8.026-10.768-8.7598-0.63281-0.05469-1.2647-0.0746-1.8848-0.06641zm77.934 0.15039c-4.342 0.05853-8.1194 1.4681-7.8437 1.7383 0.77125 0.7775 2.8646 6.8589 5.5059 8.0352 8.0025 2.255 13.28 0.15656 14.035-1.4609 0.8575-1.8412-1.1925-7.518-9.8125-8.248-0.63313-0.05406-1.2645-0.07281-1.8848-0.06445zm-38.889 0.28906c-4.3421 0.05794-8.1261 1.4701-7.8516 1.7402 0.77875 0.7775 2.8741 6.8582 5.5078 8.0332 8.0088 2.2562 15.776 0.02313 14.998-0.95312-2.12-2.6675-2.1433-8.0239-10.77-8.7539-0.63281-0.05422-1.2645-0.07468-1.8848-0.06641zm-14.285 23.91v45.447h-49.711v13.936h49.711v60.703l7.8438 2.0234 7.8242-1.9922v-60.734h49.686v-13.936h-49.686v-45.447h-15.668z" transform="matrix(.8 0 0 -.8 471.26 451.78)" stroke="#ed1c24" stroke-width="0.3" fill="#ed1c24"/><path d="m59.01 25.24c-0.1 0.46625-0.78812 2.943-1.0156 6.5918-0.1225 1.9562-0.07094 4.9308 0.28906 5.582 1.1575-0.115 3.0959-0.155 4.7559 0 0.53375-3.6575-0.68359-9.73-1.4023-11.25-0.91-0.2325-1.852-0.55133-2.627-0.92383zm14.961 2.6523c-2.3075 1.955-5.8339 6.6885-6.2852 10.479 1.0838 0.4375 3.9459 1.8025 4.3359 2.125 2.8388-2.7988 2.2604-5.8845 3.3691-8.2695 0.48125-1.0287 0.94805-1.8383 1.2168-2.3008-0.92125-0.50125-1.9155-1.2132-2.6367-2.0332zm-31.127 0.217c0.2325 0.38125 0.53414 0.87328 0.96289 1.582 1.1212 1.8538 2.8584 8.842 5.0996 11.158 1.195-0.81125 3.2625-1.8548 4.4375-2.2773-0.27125-0.45375-1.529-2.6029-2.9277-4.4316-2.6912-3.5725-4.6223-5.481-4.8398-5.791-0.7275-0.01-1.9612 0.02852-2.7324-0.24023zm44.896 7.2832c-0.51125 0.28125-1.7069 1.012-2.1094 1.3145-2.7262 2.0538-8.6348 4.813-9.9961 6.3242 1.0862 0.9625 2.6871 2.6866 3.4121 4.1328 0.6625 0.03 2.571-1.5227 6.3535-5.9727 1.2125-1.4225 2.5011-2.1727 4.8398-3.4727-0.96375-0.6875-1.7962-1.4887-2.5-2.3262zm-57.48 0.1543c-0.2925 0.93375-0.88734 2.2002-1.4336 2.9102 0.7725 1.0025 6.3446 7.3625 13.475 9.3438 0.78125-1.365 2.0407-2.9389 3.2832-4.2852-3.4-2.7425-6.5267-3.3287-11.512-5.6699-1.13-0.53125-3.0268-1.8069-3.123-1.8594-0.135-0.0975-0.3832-0.2532-0.68945-0.43945zm30.561 3.7871c-10.842 0-19.631 8.7877-19.631 19.629 0 0.51875 0.11586 1.5703 0.28711 2.6328 5.6475-1.31 13.135-1.1004 16.461 1.5371 5.385-3.0712 13.146-3.2651 18.828 0.04492 1.13-0.56375 2.3059-0.9725 3.4922-1.3125 0.14125-1.0575 0.19336-2.1648 0.19336-2.9023 0-11.004-8.6209-19.629-19.631-19.629zm53.799 8.884c-1.0725 0.005-8.1194 0.03898-10.047 0.33398-3.9425 0.6175-11.571 0.29617-15.754 0.13867-3.125-0.1225-6.7235 1.0988-7.8223 1.6875 0 0 1.2045 3.0072 1.2832 5.0547 1.3288 0.235 2.6079-1.4414 6.4004-1.3789 3.9525 0.06625 13.678-0.46461 18.6-2.3809 3.675-1.4238 6.7624-2.1383 9.2637-2.6445 0.835-0.17375 2.1616-0.3375 0.49414-0.59375-0.33625-0.05375-1.6055-0.2218-2.418-0.2168zm-99.656 0.97461c-2.0564 0.02661-3.6316 0.26562-4.998 0.26562-6.6512 0 0.18484 0.59859 0.96484 0.90234 3.13 1.235 9.4439 2.8 14.41 2.4375 2.425-0.16875 6.4861 1.3063 7.1836 1.5488 1.7862 0.6375 5.0148 1.677 6.7598 1.6445 0.09375-0.7975 0.50711-3.1731 0.84961-4.1719-1.2762-1.26-3.8154-2.347-7.1191-2.082-6.759 0.531-11.211 0.095-13.766-0.266-1.641-0.236-3.047-0.296-4.281-0.28z" transform="matrix(.8 0 0 -.8 471.26 451.78)" fill="#fdbf00"/><path d="m3.2852 86.85v42.816h47.25v-42.816h-47.25zm67.85 0v42.816h47.215v-42.816h-47.215zm-67.85 62.014 0.097656 1.8144c0.47 11.832 2.6923 21.486 7.291 29.547v-20.447h2.8926v-4.1641c2.93 0.71 7.718-0.90039 9.8555-0.90039 2.3838 0.004 3.5957 1.0371 3.5957 1.0371s1.2259-1.0371 3.5859-1.0371c2.1388 0 6.9205 1.5991 9.8555 0.90039v4.1641h2.8867v22.865h-13.533v1.7012h-5.6035v-1.7012h-12.055c1.9275 2.9212 4.2074 5.6269 6.8887 8.1406 7.525 7.0512 19.331 11.838 31.486 15.398v-57.318h-47.244zm67.848 0v57.359c11.905-3.445 23.701-8.051 31.686-15.354 2.8275-2.5838 5.1737-5.2828 7.1387-8.2266h-12.176v1.7012h-5.6055v-1.7012h-13.537v-22.867h2.8926v-4.1602c2.9288 0.70875 7.7167-0.90234 9.8555-0.90234 2.385 0.004 3.5918 1.0371 3.5918 1.0371s1.2284-1.0371 3.5859-1.0371c2.1425 0 6.9251 1.6011 9.8613 0.90234v4.1602h2.8906v20.684c4.3475-7.5212 6.4127-16.73 7.1152-29.668l-0.082-1.9277h-47.217z" transform="matrix(.8 0 0 -.8 471.26 451.78)" fill="#deddde"/><path d="m52.459 5.3594c-0.91576 0.041055-1.8244 0.19555-2.7109 0.4668-3.4525 1.055-6.0827 3.7511-7.4102 7.5898-0.10875 0.31125-0.33797 0.56742-0.63672 0.70117-0.30125 0.13875-0.64172 0.14398-0.94922 0.02148-5.29-2.1238-9.6097-2.0693-12.492 0.1582-2.4762 1.9125-3.2389 4.9266-3.1289 5.8066 0.08 0.6075-0.28656 1.1695-0.88281 1.3145l-1.2656 0.30273c-2.9312 0.66875-5.9652 1.363-6.8789 6.0293-0.10125 0.51875-0.53375 0.91234-1.0625 0.96484-5.0975 0.50875-8.4271 2.3966-9.1309 5.1816-0.49625 1.9612 0.41555 4.1848 2.2168 5.4023 1.8138 1.2288 3.9966 1.1016 5.9941-0.34961 0.32875-0.23875 0.75797-0.29664 1.1367-0.15039 2.9925 1.1438 7.8492 0.91664 10.793-1.4434 2.1338-1.7112 2.9695-4.235 2.4883-7.5-0.06125-0.41375 0.09211-0.82625 0.41211-1.0938 0.31625-0.2675 0.75023-0.23297 1.1465-0.10547 3.3338 1.0762 8.1157 0.34445 10.346-3.1855 0.3125-0.4925 0.9293-0.66477 1.4668-0.44726 2.3038 0.93375 7.0247 1.3655 12.773-4.4707 0.43125-0.43875 1.1306-0.38484 1.6094 0.0039 5.05 4.0525 10.312 4.3066 15.648 0.75781 0.33-0.22 0.75289-0.50547 1.1191-0.35547 0.36875 0.14875 0.64086 0.47133 0.72461 0.86133 1.7038 7.8825 9.9295 7.1832 12.408 6.7832 0.31875-0.05125 0.64305 0.02805 0.9043 0.2168 0.25875 0.19125 0.43156 0.47758 0.47656 0.79883 0.26875 1.8438 2.3116 5.4191 5.8516 7.2441 3.025 1.5562 6.3188 1.437 9.7988-0.35547 0.35-0.18 0.76719-0.17844 1.1172 0.0078 4.465 2.385 8.4827 2.5242 11.021 0.38672 1.7888-1.5075 2.5159-3.9633 1.8047-6.1133-0.79375-2.395-3.175-3.8861-6.5312-4.0898-0.565-0.035-1.0283-0.45492-1.1133-1.0137-0.3-1.91-1.3674-3.4734-3.0898-4.5234-2.625-1.6012-6.489-1.7889-10.334-0.50391-0.33625 0.11125-0.70922 0.06836-1.0117-0.11914-0.30375-0.18875-0.50664-0.50047-0.55664-0.85547-0.2125-1.4775-0.85188-3.4781-2.7031-4.6094-1.9512-1.1925-4.8977-1.1623-8.5215 0.08398-0.56375 0.19375-1.184-0.05258-1.459-0.58008-2.33-4.465-5.6055-7.3649-9.4668-8.3887-3.4588-0.9175-7.3005-0.25047-10.543 1.832-0.4225 0.2725-0.97195 0.25367-1.377-0.048828-2.446-1.8378-5.254-2.7368-8.001-2.6136zm-40.861 57.153c-3.6153-0.077-6.6285 0.944-7.6898 2.8-1.955 3.4162 0.34375 6.3645 1.7188 7.1895 3.1438 1.89 6.1401 0.65469 6.3613-0.50781-0.85875-0.96875-2.3399-3.157-3.1699-3.1758-1.2075-0.03125-1.1099-1.5978-0.23242-1.8828 2.1-0.695 4.1407 3.2923 7.1582 5.4473 2.6875 1.9238 6.457 0.51461 6.457-0.27539-1.645-1.4888-3.6098-9.4382-10.604-9.5957zm37.664 0.24023c-3.155-0.13221-6.5891 0.53047-9.6602 1.6211 1.3613 1.8138 3.6255 6.0524 4.793 7.4824 2.26 2.75 6.1245 1.3593 6.2832 0.5293-0.27-0.50625-2.3457-3.1899-3.127-3.6387-0.73-0.41875-1.1522-1.0834-0.74219-1.6621 0.685-0.96375 2.2949-0.000312 3.1699 1.0547 0.8725 1.06 3.3246 4.1327 4.1309 4.6777 2.4175 1.6388 7.0262 0.78516 6.6387-0.62109-1.584-2.092-2.276-6.4-6.248-8.267-1.553-0.732-3.345-1.097-5.238-1.176zm37.271 0.08594c-2.4556 0.10234-5.0066 0.66734-7.4609 1.543 0.88125 1.7562 3.1802 6.2438 4.459 7.5312 2.5 2.5338 5.9135 1.4491 6.0723 0.61914-0.28-0.505-1.8577-2.8302-2.7852-3.334-0.7575-0.4175-1.2486-1.1107-0.83984-1.6895 0.68-0.9625 2.0474-0.27961 2.9199 0.77539 0.87375 1.0662 3.28 4.2036 4.125 4.6836 2.1912 1.2138 7.0248 0.77719 6.6348-0.63281-1.3375-2.1162-2.2609-6.3924-6.2422-8.2637-2.0681-0.975-4.4272-1.3348-6.8828-1.2324zm-63.051 32.758c-2.94 0.08625-5.8152 1.2462-7.5039 0.95117v19.688s1.0669 0.8107 4.0156-0.0293c3.8175-1.0862 5.5176 0.10742 5.5176 0.10742v-19.863s-0.4468-0.90227-2.0293-0.85352zm7.0488 0c-1.5788-0.04875-2.0293 0.85352-2.0293 0.85352v19.863s1.7059-1.1937 5.5234-0.10742c2.9488 0.84 4.0137 0.0293 4.0137 0.0293v-19.688c-1.6887 0.295-4.5641-0.86492-7.5078-0.95117zm60.555 0c-2.9388 0.08625-5.8198 1.2462-7.5098 0.95117v19.688s1.067 0.8107 4.0195-0.0293c3.8088-1.0862 5.5137 0.10742 5.5137 0.10742v-19.863s-0.44094-0.90227-2.0234-0.85352zm7.0469 0c-1.5788-0.04875-2.0312 0.85352-2.0312 0.85352v19.863s1.699-1.1937 5.5215-0.10742c2.9488 0.84 4.0156 0.0293 4.0156 0.0293v-19.688c-1.6875 0.295-4.5659-0.86492-7.5059-0.95117zm-74.645 61.714c-2.9438 0.0913-5.8189 1.2527-7.5039 0.95898v19.688s1.061 0.81321 4.0098-0.0293c3.8175-1.0912 5.5215 0.0977 5.5215 0.0977v-19.861s-0.44859-0.90602-2.0273-0.85352zm7.043 0c-1.5788-0.0525-2.0273 0.85352-2.0273 0.85352v19.861s1.704-1.1889 5.5215-0.0977c2.9488 0.8425 4.0156 0.0293 4.0156 0.0293v-19.688c-1.69 0.29375-4.566-0.86773-7.5098-0.95898zm60.918 0c-2.94 0.0925-5.815 1.2508-7.5 0.95703v19.689s1.0623 0.81321 4.0098-0.0293c3.8188-1.0912 5.5215 0.0977 5.5215 0.0977v-19.861s-0.44875-0.90602-2.0312-0.85352zm7.0527 0c-1.5888-0.0525-2.0293 0.85352-2.0293 0.85352v19.861s1.7001-1.1889 5.5176-0.0977c2.95 0.8425 4.0098 0.0273 4.0098 0.0273v-19.688c-1.69 0.29375-4.5593-0.86453-7.498-0.95703z" transform="matrix(.8 0 0 -.8 471.26 451.78)" fill="#fff"/><path d="m60.805 0c-0.38423 0.026904-0.70586 0.80586-0.7793 1.2012-0.14 0.85625-0.33484 2.0327-0.55859 3.3965-3.3762-1.8025-7.126-2.3016-10.635-1.2266-3.8538 1.1788-6.7919 4.051-8.4844 8.041-1.4-0.49875-2.6669-0.79976-3.8594-1.0098-0.70625-0.92625-1.7536-2.1021-3.2148-3.3809-0.985-0.8725-1.7983-0.41977-1.207 1.3027 0.23125 0.66625 0.43219 1.2577 0.61719 1.8164-2.7488 0.15125-4.7562 1.0552-6.1074 2.0977-2.67 2.0625-3.7571 5.0169-3.9746 6.8906-0.1575 0.03875-0.36523 0.08984-0.36523 0.08984-2.24 0.51375-5.2652 1.3562-7.1602 4.3438-0.33375-0.2075-0.57844-0.35953-0.67969-0.42578-5.6475-3.75-3.0424 1.0749-0.85742 3.2012-7.51 1.0625-9.6301 4.6688-10.174 6.8125-0.1375 0.54375-0.20508 1.1039-0.20508 1.6602 0 2.435 1.2713 4.8774 3.4062 6.3262 2.51 1.6988 5.5549 1.5938 8.2637-0.13867 3.535 1.1388 8.5295 0.95586 12.113-1.6504 2.0662 2.2275 3.7356 3.8083 4.6406 4.707 2.2512 2.24 5.5522 3.9459 7.2422 4.5859-1.67-0.6475-4.4492-1.3413-7.2305-0.95508-6.0025 0.83625-9.9866-0.25281-12.557-0.50781-4.2362-0.42-8.5903 0.31055-10.758 0.31055-2.2975 0-5.5398 1.08-7.1211 1.3125-1.7087 0.255-1.5975 1.3844 0.78125 2.0156 2.3538 0.6375 6.7647 1.0298 7.9609 1.541 3.8325 1.665 10.244 3.0559 14.764 2.6934 3.2075-0.245 6.4388 1.3175 7.2676 1.5625 1.5912 0.48875 5.5323 1.5659 7.1523 1.5371 0-0.0975 0.000468 2.2779 0.16797 3.4004-0.61375 0.2025-1.2023 0.4157-1.7285 0.6582-1.795-1.0912-9.6726-4.2868-19.268-0.31055-2.029-0.699-6.32-3.065-12.198-1.13-7.2592 2.396-6.081 9.041-3.686 12.088 3.2375 4.1188 9.227 3.2854 10.971 1.2129 3.8988 2.5888 7.8755 1.7131 10.762-0.07813 1.8962 1.115 11.231 2.9656 18.326 0.07813 0.97 0.72125 4.8652 2.7531 9.8652 0.23438 2.8862 1.7138 7.6613 1.8475 10.111-0.3125 0.88875 0.75625 3.5523 1.8358 9.2285 1.7695 6.8162-0.08125 8.3985-1.0965 9.3535-1.9277 1.4688 0.68125 5.2943 2.6809 10.029 0.66211 2.5525 1.6062 7.665 1.5123 10.406-0.28516 5.01 2.2775 14.199 1.2459 16.498-0.33789 4.1125-2.8525 2.1244-8.6658-2.4043-11.426-8.9038-4.4862-17.193-1.0057-19.393 0.12305-2.6225-1.77-8.1104-2.9032-13.807-1.8457 0.0875-0.67875-0.01172-1.4546-0.01172-2.3184 0-0.09125-0.01313-0.17703-0.01563-0.26953 1.13-0.3425 2.7352-1.5587 6.0039-1.7637 4.4462-0.3 14.939-0.16016 20.184-2.8477 2.9925-1.5312 13.406-3.5728 14.795-4.3828 1.4338-0.82 1.0567-1.4291 0.32422-1.9316-0.71-0.52125-8.2403-1.4473-9.4141-1.4473-1.145 0-7.645 0.0582-10.156 0.43945-3.9025 0.58-10.562 0.58-15.619 0-1.83-0.215-3.8562 0.23258-5.5137 0.76758 0.32625-0.27375 0.6757-0.59289 1.0957-1.0254 1.4912-1.535 3.1646-4.4498 6.1309-5.9023 0.75-0.37125 1.4489-0.74961 2.1289-1.1309 2.49 1.245 6.4162 2.0912 11.295-0.20508 7.2788 3.635 11.618 1.1746 13.154-0.11914 1.8775-1.5825 2.9258-3.9177 2.9258-6.2715 0-0.82-0.12883-1.643-0.39258-2.4355-1.0475-3.1638-3.9315-5.1378-7.8965-5.6016-0.22625-0.84375-0.58703-1.6259-1.0195-2.3672 0.46125-0.58625 0.8986-1.1377 1.1836-1.4727 0.345-0.43375 1.5391-2.4187-1.6621-0.76367-0.165 0.085-0.47078 0.25211-0.86328 0.47461-0.44875-0.44375-0.94157-0.85031-1.5078-1.1953-2.985-1.82-7.0195-2.0416-11.176-0.93164-0.58375-2.215-1.6788-4.0868-3.4238-5.1543-1.83-1.12-4.1346-1.4423-6.8496-1.0273 0.16875-0.3975 0.32312-0.74984 0.45312-1.0273 1.2075-2.5288 0.55586-3.1623-0.71289-2.041-1.4325 1.2687-2.334 2.1736-3.0215 2.9023-2.57-4.1225-5.9544-6.9061-9.9531-7.9648-3.4688-0.92-7.215-0.43383-10.594 1.2012-0.20125-1.7-0.42492-3.0966-0.66992-3.9004-0.229-0.76888-0.481-1.0231-0.711-1.007zm-8.3457 5.3594c2.747-0.12369 5.5541 0.77578 8.002 2.6133 0.405 0.3025 0.95445 0.32133 1.377 0.048828 3.2425-2.0825 7.0862-2.7495 10.545-1.832 3.8613 1.0225 7.1348 3.9244 9.4648 8.3906 0.27375 0.52625 0.89524 0.77258 1.459 0.58008 3.6238-1.2475 6.5702-1.2784 8.5215-0.08594 1.85 1.1325 2.4906 3.1338 2.7031 4.6113 0.05 0.35375 0.25289 0.66476 0.55664 0.85352 0.3025 0.18875 0.67617 0.23039 1.0137 0.11914 3.845-1.285 7.707-1.098 10.332 0.50195 1.7225 1.05 2.7898 2.6141 3.0898 4.5254 0.085 0.5575 0.54828 0.97992 1.1133 1.0137 3.3562 0.205 5.7375 1.6948 6.5312 4.0898 0.71125 2.15-0.014 4.6058-1.8027 6.1133-2.5388 2.1388-6.5591 1.9995-11.025-0.38672-0.34875-0.18625-0.76328-0.18781-1.1133-0.0078-3.48 1.7925-6.7738 1.9124-9.7988 0.35742-3.54-1.8262-5.5848-5.4023-5.8535-7.2461-0.045-0.32125-0.21781-0.60883-0.47656-0.79883-0.26125-0.19-0.58555-0.26805-0.9043-0.2168-2.4788 0.4-10.706 1.0993-12.41-6.7832-0.0825-0.38875-0.35391-0.71258-0.72266-0.86133-0.36625-0.15-0.78914 0.13547-1.1191 0.35547-5.3362 3.5488-10.598 3.2947-15.648-0.75781-0.47875-0.38875-1.1781-0.44141-1.6094-0.0039-5.7488 5.8362-10.47 5.4032-12.773 4.4707-0.5375-0.21875-1.1555-0.04523-1.4668 0.44726-2.23 3.53-7.012 4.263-10.346 3.1855-0.39625-0.1275-0.83023-0.16203-1.1465 0.10547-0.32 0.2675-0.47336 0.68125-0.41211 1.0938 0.48125 3.265-0.35453 5.7895-2.4883 7.502-2.9438 2.3588-7.8005 2.5864-10.793 1.4414-0.37875-0.14625-0.80797-0.08836-1.1367 0.15039-1.9988 1.4512-4.1804 1.5796-5.9941 0.34961-1.8012-1.2175-2.7118-3.4411-2.2168-5.4023 0.705-2.785 4.0346-4.6729 9.1309-5.1816 0.52875-0.0525 0.96125-0.44609 1.0625-0.96484 0.91375-4.665 3.9477-5.3605 6.8789-6.0293l1.2656-0.30273c0.59625-0.145 0.96281-0.70891 0.88281-1.3164-0.11125-0.87875 0.65266-3.8922 3.1289-5.8047 2.8825-2.2275 7.2022-2.282 12.492-0.1582 0.30625 0.1225 0.64797 0.11531 0.94922-0.02344 0.29875-0.13375 0.52797-0.38797 0.63672-0.69922 1.3262-3.8388 3.9577-6.5341 7.4102-7.5879 0.88656-0.27156 1.7953-0.42752 2.7109-0.46875zm1.0684 2.3086c-3.738-0.0826-7.057 2.614-8.298 4.582-0.43125 0.69125 0.61609 2.6562 1.6211 1.4688 2.095-2.5 6.0473-5.2753 11.072-1.8203 0.68875 0.4625 1.4241-1.5302 0.80664-2.0664-1.7172-1.5156-3.5021-2.1265-5.2012-2.1641zm15.803 0.91211c-3.4775 0.013438-6.5416 1.5582-7.5254 3.1582-0.5725 0.94125 0.60758 2.7444 1.0488 2.0781 2.1788-3.2862 10.281-5.1534 14.76 1.9316 0.27625 0.445 0.52781 1.1249 0.94531 0.82617 0.59125-0.40625 1.338-0.97984 0.7793-1.9648-2.6388-4.525-6.5303-6.0427-10.008-6.0293zm-33.82 6.1169c-5.639-0.292-8.21 3.803-8.764 6.729-0.25875 1.3862 1.5695 1.5538 1.6895 1.1113 0.88375-3.2638 3.6185-7.4005 9.0723-5.2617 0.985 0.39125 1.5256-1.9367 0.60938-2.168-0.93375-0.23703-1.8019-0.36837-2.6074-0.41016zm52.197 1.5508c-1.2823-0.02359-2.5763 0.26117-3.5996 0.62305-0.4325 0.15-0.75 2.3226 0.5625 1.8926 2.8462-0.9075 5.2286-1.0388 6.4961 2.2637 0.3475 0.89375 1.9136 0.28797 1.5586-0.98828-0.775-2.8508-2.8805-3.7517-5.0176-3.791zm12.482 5.9121c-1.2992 0.04423-2.5187 0.37539-3.4375 0.90039-1.0838 0.6175-0.46695 2.3559 0.2168 2.0859 3.0525-1.1638 6.7043-1.1738 8.9668 2.9824 0.75125 1.3812 1.9638-0.16953 1.6426-1.082-1.2856-3.6902-4.5305-4.984-7.3887-4.8867zm-44.637 1.0098c0.30125 0.22 0.6057 0.38562 0.9082 0.57812-0.15375 0.905-0.29484 1.7227-0.40234 2.3164-0.6525 3.5562-0.69789 6.2891-0.74414 7.4629-0.05 1.1112 0.05797 2.8666 0.13672 3.9004l0.08594 0.17969s-1.7536-2.6318-1.9648-2.9668c-0.6-0.91625-1.3809-1.8437-2.2559-2.9199-1.3712-1.66-2.5766-3.0081-3.5078-4.0156 2.2975-0.56125 4.9204-1.8714 7.7441-4.5352zm-31.891 0.35938c-1.7975 0.01242-5.0319 1.1371-5.7461 4.4512-0.2725 1.275 1.4527 1.7393 1.6777 1.0918 0.5475-1.7225 1.4465-3.225 4.5215-3.5625 0.565-0.05375 0.71805-1.8256 0.2168-1.9219-0.18656-0.04047-0.41314-0.06037-0.66992-0.05859zm48.219 0.62891c0.19875 0.58125 0.46406 1.0895 0.72656 1.5957-1.455 1.3275-4.932 5.1441-6.2832 8.5879-0.54125 1.3688-0.75258 2.0913-0.95508 2.8613 0.42125-2.9425-0.37812-7.2466-1.2344-10.963 2.5675 0.05375 5.1673-0.61953 7.7461-2.082zm-12.871 1.082c0.775 0.37125 1.7157 0.69258 2.627 0.92383 0.7175 1.52 1.9361 7.5912 1.4023 11.25-1.66-0.155-3.5984-0.115-4.7559 0-0.36125-0.6525-0.41281-3.627-0.28906-5.582 0.2275-3.6488 0.91562-6.1268 1.0156-6.5918zm14.963 2.6523c0.72125 0.82 1.7135 1.5312 2.6348 2.0312-0.27 0.46375-0.73359 1.274-1.2148 2.3027-1.1088 2.385-0.53234 5.4708-3.3711 8.2695-0.39125-0.3225-3.2515-1.6875-4.334-2.125 0.45-3.79 3.9764-8.5235 6.2852-10.479zm-31.129 0.217c0.77125 0.27 2.0049 0.23219 2.7324 0.24219 0.2175 0.30875 2.1486 2.2166 4.8398 5.7891 1.3988 1.8288 2.6565 3.9791 2.9277 4.4316-1.175 0.4225-3.2432 1.468-4.4395 2.2793-2.24-2.3162-3.9764-9.3077-5.0977-11.16-0.42875-0.71-0.73039-1.1995-0.96289-1.582zm-2.3613 0.75977c3.3038 5.275 3.3894 10.053 6.5781 13.346-4.0262-3.895-7.5374-3.8202-13.295-6.9277-0.99375-0.535-2.479-1.5004-2.8965-1.7129-0.0062-0.005-0.01789-0.0099-0.02539-0.01367 0.06625-0.485 0.10547-0.98875 0.10547-1.5312 0-0.155-0.03016-0.3368-0.03516-0.49805 3.1775 0.50125 6.8784-0.24211 9.5684-2.6621zm70.371 0.10156c-0.38667-0.0014-0.77438 0.04141-1.1524 0.12891-0.64125 0.14-0.70687 1.9673 0.14063 1.9473 2.24-0.0225 3.9221 0.2518 3.6621 3.6543-0.06 0.71 1.6473 0.66695 1.8223-0.0293 0.90125-3.5558-1.766-5.6916-4.4726-5.7012zm-96.858 1.435c-2.8676 0.14005-6.6057 1.7852-6.6855 5.3125-0.02 0.84875 1.0648 1.5969 1.4961 1.1719 0.295-0.31-0.090312-1.2491 1.4922-2.9629 1.4788-1.6075 3.1651-1.6523 5.2676-1.6523 0.9775 0 0.6918-1.7079-0.4082-1.8379-0.36094-0.04031-0.75246-0.05126-1.1621-0.03125zm64.715 0.47266c2.1125 0.70125 4.432 0.88867 6.707 0.63867 0.23 0.74375 0.58813 1.5391 1.0469 2.3379-0.01 0.0025-0.03211 0.01703-0.03711 0.01953-1.1262 0.535-4.5425 2.8704-9.5312 5.6504-1.2912 0.71375-2.0855 1.403-2.543 1.873 0.55-0.73875 1.2188-1.7149 1.6426-2.7949 0.8775-2.2488 0.645-4.053 2.4062-7.1367 0.09125-0.16 0.19734-0.36664 0.30859-0.58789zm9.0332 4.5117c0.70375 0.83875 1.5375 1.6406 2.5 2.3281-2.3375 1.3-3.6293 2.0514-4.8418 3.4727-3.7812 4.45-5.6871 6.0027-6.3496 5.9727-0.725-1.445-2.3291-3.1723-3.4141-4.1348 1.3612-1.51 7.2691-4.2678 9.9941-6.3203 0.4025-0.3025 1.5988-1.0371 2.1113-1.3184zm-57.48 0.15625c0.30625 0.18625 0.5557 0.3432 0.68945 0.43945 0.0975 0.0525 1.9943 1.3294 3.123 1.8594 4.985 2.3412 8.1117 2.9287 11.512 5.6699-1.2425 1.3475-2.502 2.9189-3.2832 4.2852-7.13-1.9812-12.702-8.34-13.475-9.3438 0.54625-0.71 1.1411-1.9752 1.4336-2.9102zm30.561 3.7871c11.01 0 19.631 8.6252 19.631 19.629 0 0.7375-0.05211 1.8448-0.19336 2.9023-1.1862 0.34-2.3634 0.7475-3.4922 1.3125-5.6838-3.3112-13.443-3.1174-18.828-0.04492-3.3262-2.6375-10.813-2.8471-16.461-1.5371-0.17-1.0625-0.28711-2.1141-0.28711-2.6328 0-10.841 8.7884-19.629 19.631-19.629zm53.799 8.883c0.81125-0.005 2.0798 0.1643 2.416 0.2168 1.6688 0.25625 0.34281 0.42-0.49219 0.59375-2.5 0.50625-5.5887 1.2208-9.2637 2.6445-4.9212 1.9162-14.647 2.4471-18.6 2.3809-3.7925-0.0625-5.0716 1.6152-6.4004 1.3789-0.07875-2.0475-1.2832-5.0547-1.2832-5.0547 1.0988-0.58875 4.6973-1.8088 7.8223-1.6875 4.1825 0.15875 11.811 0.47883 15.754-0.13867 1.9275-0.295 8.9731-0.32898 10.047-0.33398zm-60.131 0.75391c-0.54234-0.0265-1.0797-0.02687-1.5781 0.0078l-0.03711 0.0098c-1.1838 0.1475-2.5238 0.85914-3.9375 2.0879-1.3325 1.1538-0.47328 1.4771 0.29297 1.0059 1.5262-0.92625 2.5543-0.59297 2.748-0.29297l-0.02148 0.25c-0.0625 1.2525 0.90406 2.3352 2.1641 2.3965 1.265 0.0625 2.3372-0.90547 2.3984-2.168l-0.0059-0.17969c0.7525-0.1725 1.6512 0.20562 2.0625 0.29688 0.115 0.03 0.63727-2.4376 0.13477-2.6426-0.90844-0.36938-2.5937-0.69197-4.2207-0.77148zm12.186 0.21875c-1.5016-0.0014-2.857 0.24203-3.5957 0.54297-0.7225 0.29375-0.16875 2.6192-0.0625 2.668 0.17875 0.07125 1.4886-0.3818 2.3086-0.12305v0.09766c0.10625 1.2538 1.2159 2.1913 2.4746 2.0801 1.2562-0.1125 2.1837-1.2191 2.0762-2.4766l-0.01953-0.17578c0.52-0.375 1.8798-0.000234 2.916 0.85352 0.55125 0.45125 0.685-0.12219 0.46875-0.55469-1.1523-2.2273-4.0638-2.9098-6.5664-2.9121zm-51.711 0.002c1.234-0.01597 2.6406 0.04398 4.2812 0.2793 2.555 0.3625 7.0083 0.79688 13.77 0.26562 3.305-0.265 5.8416 0.82328 7.1191 2.082-0.3425 1-0.75461 3.3744-0.84961 4.1719-1.7437 0.0325-4.9728-1.007-6.7578-1.6445-0.6975-0.24125-4.7593-1.7188-7.1855-1.5488-4.965 0.36125-11.278-1.2025-14.408-2.4375-0.78-0.30375-7.6173-0.90234-0.96484-0.90234 1.3656 0 2.9394-0.23901 4.9961-0.26562zm48.064 7.291c-0.34375-0.095 0.01789 0.67781-0.53711 0.82031-0.6275 0.15625-3.9458 0.53375-4.8633 0-0.56-0.32125-0.1457 1.2288 0.1543 1.8301 0.7575 1.5163 4.882 1.1455 5.2832-0.01953 0.37-1.1025 0.37164-2.5171-0.03711-2.6309zm-34.79 6.017c0.6201-0.0082 1.25 0.01172 1.8828 0.06641 8.6188 0.7325 8.6438 6.0873 10.768 8.7598 0.7725 0.9725-6.9929 3.1992-14.994 0.94922-2.6412-1.1712-4.7316-7.2538-5.5078-8.0312-0.27-0.27 3.511-1.687 7.851-1.744zm-16.641 0.01172c6.9925 0.1575 8.9598 8.107 10.604 9.5957 0 0.79-3.7702 2.1991-6.459 0.27539-3.0163-2.155-5.0562-6.1423-7.1563-5.4473-0.8775 0.285-0.97578 1.8516 0.23047 1.8828 0.83125 0.01875 2.3131 2.207 3.1719 3.1758-0.2225 1.1625-3.2188 2.3978-6.3613 0.50781-1.375-0.825-3.6718-3.7732-1.7168-7.1895 1.0613-1.8562 4.0712-2.877 7.6875-2.8008zm94.572 0.13867c0.62018-0.0083 1.2518 0.01219 1.8848 0.06641 8.6212 0.73 10.671 6.4048 9.8125 8.2461-0.75375 1.6175-6.0327 3.7179-14.035 1.4629-2.6412-1.1762-4.7359-7.2577-5.5059-8.0352-0.27562-0.27016 3.5025-1.6823 7.8437-1.7402zm-56.908 0.10156c1.8931 0.07933 3.6853 0.44406 5.2383 1.1758 3.9725 1.8675 4.663 6.1751 6.248 8.2676 0.3875 1.4062-4.2212 2.2598-6.6387 0.62109-0.80625-0.54375-3.2571-3.6165-4.1309-4.6777-0.87375-1.055-2.4869-2.0184-3.1719-1.0547-0.40875 0.57875 0.01539 1.2446 0.74414 1.6621 0.7825 0.44875 2.8557 3.1324 3.127 3.6387-0.16 0.83125-4.0245 2.2207-6.2832-0.5293-1.1688-1.43-3.433-5.6674-4.793-7.4824 3.0703-1.0906 6.5049-1.7533 9.6602-1.6211zm37.271 0.08594c2.4555-0.10203 4.8153 0.25742 6.8828 1.2324 3.9825 1.87 4.904 6.1462 6.2402 8.2637 0.39125 1.4088-4.4403 1.8466-6.6328 0.63281-0.84375-0.48-3.2513-3.6161-4.125-4.6836-0.87375-1.055-2.2406-1.7366-2.9219-0.77539-0.40875 0.58 0.08234 1.272 0.83984 1.6895 0.92875 0.505 2.5052 2.8277 2.7852 3.334-0.15875 0.82875-3.5703 1.9159-6.0703-0.61914-1.2788-1.2862-3.5777-5.7757-4.459-7.5332 2.4544-0.87562 5.0055-1.439 7.4609-1.541zm-19.252 0.102c0.62026-0.0083 1.252 0.01024 1.8848 0.06445 8.6262 0.73 8.6488 6.0877 10.768 8.7539 0.7775 0.9775-6.9886 3.2094-14.996 0.95312-2.635-1.175-4.731-7.2557-5.5098-8.0332-0.27344-0.27016 3.5117-1.6803 7.8535-1.7383zm-66.889 21.023v63.363c0 20.941 5.2331 35.445 16.422 45.635 11.112 10.115 27.754 15.251 44.025 19.094 16.712-3.9462 32.795-8.8738 44.018-19.094 11.192-10.19 16.395-24.694 16.395-45.635v-63.363h-120.86zm2.8926 2.8848h47.25v42.818h-47.25v-42.818zm49.711 0h15.668v45.447h49.686v13.936h-49.686v60.732l-7.8242 1.9941-7.8438-2.0254v-60.701h-49.711v-13.936h49.711v-45.447zm18.137 0h47.217v42.818h-47.217v-42.818zm-47.713 6.1484c-2.1362-0.005-6.9256 1.613-9.8594 0.9043v4.1602h-2.8867v22.863h13.533v1.6992h5.6094v-1.6992h13.529v-22.863h-2.8867v-4.1602c-2.935 0.69375-7.7199-0.9043-9.8574-0.9043-2.36 0-3.5859 1.0352-3.5859 1.0352s-1.2107-1.0289-3.5957-1.0352zm67.963 0c-2.1375-0.005-6.9244 1.613-9.8594 0.9043v4.1602h-2.8789v22.863h13.527v1.6992h5.6094v-1.6992h13.529v-22.863h-2.8828v-4.1602c-2.9388 0.69375-7.7206-0.9043-9.8594-0.9043-2.3612 0-3.5918 1.0352-3.5918 1.0352s-1.2075-1.0289-3.5938-1.0352zm-67.898 2.5977c1.5825-0.04875 2.0273 0.85352 2.0273 0.85352v19.863s-1.7001-1.1924-5.5176-0.10742c-2.9488 0.84-4.0156 0.0293-4.0156 0.0293v-19.688c1.6888 0.29375 4.5659-0.86492 7.5059-0.95117zm7.0469 0c2.9438 0.08625 5.8191 1.2449 7.5078 0.95117v19.688s-1.0649 0.8107-4.0137-0.0293c-3.8175-1.085-5.5234 0.10742-5.5234 0.10742v-19.863s0.4493-0.90227 2.0293-0.85352zm60.555 0c1.5838-0.04875 2.0234 0.85352 2.0234 0.85352v19.863s-1.7062-1.1924-5.5137-0.10742c-2.9525 0.84-4.0215 0.0293-4.0215 0.0293v-19.688c1.6912 0.29375 4.5742-0.86492 7.5117-0.95117zm7.0469 0c2.9387 0.08625 5.8171 1.2449 7.5059 0.95117v19.688s-1.0676 0.8107-4.0176-0.0293c-3.8225-1.085-5.5195 0.10742-5.5195 0.10742v-19.863s0.45125-0.90227 2.0312-0.85352zm-94.848 53.268h47.246v57.318c-12.156-3.56-23.965-8.3479-31.49-15.4-2.6812-2.5125-4.9592-5.2174-6.8867-8.1387h12.055v1.7012h5.6035v-1.7012h13.533v-22.867h-2.8867v-4.1621c-2.9338 0.7-7.718-0.90039-9.8555-0.90039-2.3612 0-3.5859 1.0371-3.5859 1.0371s-1.212-1.0334-3.5957-1.0371c-2.1375 0-6.9255 1.6104-9.8555 0.90039v4.1621h-2.8926v20.447c-4.5987-8.06-6.821-17.714-7.291-29.545l-0.097656-1.8144zm67.848 0h47.217l0.082 1.9297c-0.7025 12.938-2.7677 22.144-7.1152 29.664v-20.682h-2.8906v-4.1621c-2.9362 0.7-7.7188-0.90039-9.8613-0.90039-2.3575 0-3.5859 1.0371-3.5859 1.0371s-1.2068-1.0334-3.5918-1.0371c-2.1388 0-6.9267 1.6104-9.8555 0.90039v4.1621h-2.8926v22.867h13.537v1.7012h5.6055v-1.7012h12.176c-1.965 2.9438-4.3112 5.6441-7.1387 8.2266-7.985 7.3038-19.781 11.909-31.686 15.354v-57.359zm-47.643 8.4492c1.5775-0.0525 2.0273 0.85352 2.0273 0.85352v19.861s-1.7059-1.1902-5.5234-0.0977c-2.9488 0.84125-4.0098 0.0293-4.0098 0.0293v-19.689c1.6838 0.295 4.5621-0.86578 7.5059-0.95703zm7.041 0c2.9438 0.0913 5.8198 1.252 7.5098 0.95703v19.689s-1.0669 0.81196-4.0156-0.0293c-3.8175-1.0925-5.5215 0.0977-5.5215 0.0977v-19.861s0.44859-0.90602 2.0273-0.85352zm60.92 0c1.5812-0.0525 2.0312 0.85352 2.0312 0.85352v19.861s-1.7034-1.1902-5.5234-0.0977c-2.9475 0.84125-4.0117 0.0293-4.0117 0.0293v-19.689c1.6862 0.295 4.5627-0.86578 7.5039-0.95703zm7.0508 0c2.9387 0.0913 5.8093 1.252 7.498 0.95703v19.689s-1.0585 0.81196-4.0098-0.0293c-3.8162-1.0925-5.5176 0.0977-5.5176 0.0977v-19.861s0.44055-0.90602 2.0293-0.85352z" transform="matrix(.8 0 0 -.8 471.26 451.78)"/></g></g></svg>
